<?xml version="1.0" standalone="no"?>
<!DOCTYPE svg PUBLIC "-//W3C//DTD SVG 20010904//EN"
 "http://www.w3.org/TR/2001/REC-SVG-20010904/DTD/svg10.dtd">
<svg version="1.0" xmlns="http://www.w3.org/2000/svg"
 width="1024.000000pt" height="1024.000000pt" viewBox="0 0 1024.000000 1024.000000"
 preserveAspectRatio="xMidYMid meet">

<g transform="translate(0.000000,1024.000000) scale(0.100000,-0.100000)"
fill="#000000" stroke="none">
<path d="M5037 8605 c-32 -19 -61 -35 -66 -35 -4 0 -13 -6 -19 -12 -7 -7 -41
-29 -76 -48 -35 -19 -92 -52 -127 -74 -35 -21 -80 -48 -99 -59 -19 -11 -48
-28 -65 -38 -16 -10 -61 -36 -100 -58 -38 -23 -90 -53 -115 -67 -25 -14 -66
-39 -93 -55 -26 -16 -49 -29 -51 -29 -3 0 -41 -22 -86 -50 -45 -27 -83 -50
-85 -50 -2 0 -40 -22 -84 -50 -44 -27 -83 -50 -86 -50 -3 0 -29 -15 -58 -33
-29 -18 -95 -57 -147 -87 -52 -29 -102 -58 -110 -65 -8 -7 -44 -27 -80 -46
-36 -19 -67 -37 -70 -40 -3 -3 -34 -22 -70 -42 -36 -20 -84 -48 -107 -61 -105
-62 -312 -182 -353 -204 -25 -14 -68 -40 -97 -59 -29 -18 -54 -33 -57 -33 -3
0 -35 -18 -71 -40 -36 -22 -67 -40 -70 -40 -3 0 -28 -15 -57 -34 -29 -18 -69
-42 -88 -53 -19 -10 -65 -36 -101 -57 l-67 -39 -7 -474 c-8 -491 -6 -543 17
-566 7 -8 60 -37 118 -66 58 -29 137 -70 175 -92 39 -21 77 -41 85 -45 8 -3
24 -10 34 -16 19 -10 123 -64 405 -209 152 -79 178 -98 208 -157 17 -35 18
-70 15 -612 -4 -663 2 -626 -90 -624 -33 1 -61 9 -79 22 -15 11 -48 29 -73 41
-63 30 -349 179 -445 231 -44 24 -116 62 -160 84 -44 22 -82 43 -85 46 -3 4
-29 18 -59 33 -39 19 -57 24 -62 15 -9 -14 -12 -917 -4 -951 4 -16 20 -30 43
-41 20 -9 58 -31 84 -49 41 -28 132 -82 295 -177 23 -14 95 -58 158 -98 63
-39 119 -72 124 -72 5 0 11 -3 13 -7 1 -5 19 -17 40 -28 20 -11 69 -41 110
-66 184 -116 339 -209 348 -209 6 0 10 -4 10 -8 0 -5 10 -14 23 -20 12 -6 38
-22 58 -34 20 -13 63 -38 95 -57 33 -19 61 -37 64 -40 3 -3 19 -13 35 -22 17
-9 77 -45 135 -79 58 -34 132 -79 165 -98 33 -20 62 -39 65 -42 3 -4 25 -18
50 -32 25 -14 59 -34 76 -44 17 -10 87 -53 155 -94 68 -41 126 -77 129 -80 3
-3 21 -13 40 -24 65 -34 105 -58 120 -70 8 -6 34 -22 58 -35 l43 -23 146 89
c81 48 203 123 272 165 69 42 140 85 158 93 18 9 37 23 44 31 6 8 15 14 20 14
4 0 34 17 66 38 79 50 87 55 168 103 39 24 84 53 101 66 17 13 34 23 38 23 4
0 22 11 39 24 18 13 55 36 82 51 28 15 57 32 65 39 12 10 152 96 228 141 9 6
38 25 64 43 26 17 50 32 54 32 4 0 22 11 40 25 18 14 36 25 39 25 4 0 37 19
74 43 69 45 115 75 142 92 9 5 36 21 60 34 24 13 62 36 84 51 22 15 78 51 125
79 118 71 121 73 157 98 17 13 35 23 38 23 3 0 64 37 134 83 70 45 136 88 147
94 10 7 33 20 49 29 25 14 149 92 240 152 11 7 28 15 38 18 9 4 17 10 17 15 0
5 6 9 14 9 8 0 22 10 30 22 14 20 16 191 16 1628 0 883 -3 1614 -6 1626 -3 11
-20 27 -37 36 -69 33 -315 163 -367 193 -30 18 -127 70 -215 115 -88 45 -164
85 -170 89 -9 8 -175 96 -347 186 -189 98 -299 156 -378 200 -47 25 -125 67
-175 91 -49 25 -117 60 -150 78 -33 18 -94 51 -135 73 -41 21 -84 44 -95 50
-11 6 -45 23 -75 38 -30 15 -62 33 -70 40 -8 6 -58 34 -110 60 -52 27 -111 57
-130 68 -46 26 -125 69 -175 96 -52 28 -60 27 -128 -14z"/>
<path d="M2063 5767 c-31 -36 -84 -67 -114 -67 -42 0 -49 -10 -49 -75 0 -41 4
-65 13 -68 16 -6 117 15 117 25 0 4 6 5 13 3 9 -4 11 -67 9 -282 -3 -276 -1
-323 19 -323 5 0 26 -11 46 -24 65 -45 63 -58 63 394 l0 409 -29 20 c-40 29
-54 26 -88 -12z"/>
<path d="M2476 5314 c-3 -9 -6 -42 -6 -75 0 -34 -4 -59 -10 -59 -6 0 -28 9
-50 20 -60 31 -72 27 -68 -21 3 -39 6 -43 63 -74 l60 -34 3 -88 c2 -85 3 -89
34 -115 17 -15 35 -25 40 -22 4 3 8 41 8 85 0 91 4 94 76 54 50 -28 58 -22 52
35 -3 32 -35 59 -105 90 -21 9 -23 16 -23 93 0 68 -3 87 -17 99 -28 24 -51 28
-57 12z"/>
<path d="M2964 5298 c-35 -36 -73 -57 -133 -72 l-46 -11 0 -65 0 -65 45 1 c25
1 57 5 72 9 l28 7 2 -288 3 -288 40 -27 c22 -15 49 -29 60 -30 20 -4 20 2 23
386 1 215 0 404 -3 422 -4 23 -13 34 -34 41 -26 9 -32 7 -57 -20z"/>
</g>
</svg>
